<svg width="14" height="14" viewBox="0 0 14 14" fill="none" xmlns="http://www.w3.org/2000/svg">
<path d="M6.99992 0.333313C3.32592 0.333313 0.333252 3.32598 0.333252 6.99998C0.333252 10.674 3.32592 13.6666 6.99992 13.6666C10.6739 13.6666 13.6666 10.674 13.6666 6.99998C13.6666 3.32598 10.6739 0.333313 6.99992 0.333313ZM6.99992 1.66665C9.95333 1.66665 12.3333 4.04656 12.3333 6.99998C12.3333 9.95339 9.95333 12.3333 6.99992 12.3333C4.0465 12.3333 1.66659 9.95339 1.66659 6.99998C1.66659 4.04656 4.0465 1.66665 6.99992 1.66665ZM9.8619 4.52863L5.66659 8.72394L4.13794 7.19529L3.19523 8.138L5.66659 10.6094L10.8046 5.47133L9.8619 4.52863Z" fill="#23263B"/>
</svg>
