<svg width="16" height="21" viewBox="0 0 16 21" fill="none" xmlns="http://www.w3.org/2000/svg">
<path d="M14 4.108H12C12 1.898 10.21 0.108002 8 0.108002C5.79 0.108002 4 1.898 4 4.108H2C0.9 4.108 0 5.008 0 6.108V18.108C0 19.208 0.9 20.108 2 20.108H14C15.1 20.108 16 19.208 16 18.108V6.108C16 5.008 15.1 4.108 14 4.108ZM8 2.108C9.1 2.108 10 3.008 10 4.108H6C6 3.008 6.9 2.108 8 2.108ZM14 18.108H2V6.108H4V8.108C4 8.658 4.45 9.108 5 9.108C5.55 9.108 6 8.658 6 8.108V6.108H10V8.108C10 8.658 10.45 9.108 11 9.108C11.55 9.108 12 8.658 12 8.108V6.108H14V18.108Z" fill="#23263B"/>
</svg>
