<svg width="70" height="13" viewBox="0 0 70 13" fill="none" xmlns="http://www.w3.org/2000/svg">
<path d="M4.00009 3.41669C4.09524 3.41669 4.18215 3.47071 4.22426 3.55603L5.19615 5.52497L7.36958 5.84265C7.46372 5.85641 7.54189 5.92241 7.57123 6.01291C7.60058 6.10341 7.57601 6.20273 7.50785 6.26911L5.93538 7.8007L6.30649 9.96443C6.32258 10.0582 6.28402 10.153 6.20702 10.209C6.13003 10.2649 6.02795 10.2723 5.94372 10.228L4.00009 9.20582L2.05645 10.228C1.97222 10.2723 1.87015 10.2649 1.79315 10.209C1.71616 10.153 1.6776 10.0582 1.69369 9.96443L2.06479 7.8007L0.492322 6.26911C0.424168 6.20273 0.399599 6.10341 0.428944 6.01291C0.458288 5.92241 0.536458 5.85641 0.630598 5.84265L2.80402 5.52497L3.77591 3.55603C3.81803 3.47071 3.90493 3.41669 4.00009 3.41669Z" fill="#23263B"/>
<path d="M13.0001 3.41669C13.0952 3.41669 13.1821 3.47071 13.2243 3.55603L14.1962 5.52497L16.3696 5.84265C16.4637 5.85641 16.5419 5.92241 16.5712 6.01291C16.6006 6.10341 16.576 6.20273 16.5079 6.26911L14.9354 7.8007L15.3065 9.96443C15.3226 10.0582 15.284 10.153 15.207 10.209C15.13 10.2649 15.028 10.2723 14.9437 10.228L13.0001 9.20582L11.0565 10.228C10.9722 10.2723 10.8701 10.2649 10.7932 10.209C10.7162 10.153 10.6776 10.0582 10.6937 9.96443L11.0648 7.8007L9.49232 6.26911C9.42417 6.20273 9.3996 6.10341 9.42894 6.01291C9.45829 5.92241 9.53646 5.85641 9.6306 5.84265L11.804 5.52497L12.7759 3.55603C12.818 3.47071 12.9049 3.41669 13.0001 3.41669Z" fill="#23263B"/>
<path d="M22.0001 3.41669C22.0952 3.41669 22.1821 3.47071 22.2243 3.55603L23.1962 5.52497L25.3696 5.84265C25.4637 5.85641 25.5419 5.92241 25.5712 6.01291C25.6006 6.10341 25.576 6.20273 25.5079 6.26911L23.9354 7.8007L24.3065 9.96443C24.3226 10.0582 24.284 10.153 24.207 10.209C24.13 10.2649 24.028 10.2723 23.9437 10.228L22.0001 9.20582L20.0565 10.228C19.9722 10.2723 19.8701 10.2649 19.7932 10.209C19.7162 10.153 19.6776 10.0582 19.6937 9.96443L20.0648 7.8007L18.4923 6.26911C18.4242 6.20273 18.3996 6.10341 18.4289 6.01291C18.4583 5.92241 18.5365 5.85641 18.6306 5.84265L20.804 5.52497L21.7759 3.55603C21.818 3.47071 21.9049 3.41669 22.0001 3.41669Z" fill="#23263B"/>
<path d="M31.0001 3.41669C31.0952 3.41669 31.1821 3.47071 31.2243 3.55603L32.1962 5.52497L34.3696 5.84265C34.4637 5.85641 34.5419 5.92241 34.5712 6.01291C34.6006 6.10341 34.576 6.20273 34.5079 6.26911L32.9354 7.8007L33.3065 9.96443C33.3226 10.0582 33.284 10.153 33.207 10.209C33.13 10.2649 33.028 10.2723 32.9437 10.228L31.0001 9.20582L29.0565 10.228C28.9722 10.2723 28.8701 10.2649 28.7932 10.209C28.7162 10.153 28.6776 10.0582 28.6937 9.96443L29.0648 7.8007L27.4923 6.26911C27.4242 6.20273 27.3996 6.10341 27.4289 6.01291C27.4583 5.92241 27.5365 5.85641 27.6306 5.84265L29.804 5.52497L30.7759 3.55603C30.818 3.47071 30.9049 3.41669 31.0001 3.41669Z" fill="#23263B"/>
<path d="M40.0001 3.41669C40.0952 3.41669 40.1821 3.47071 40.2243 3.55603L41.1962 5.52497L43.3696 5.84265C43.4637 5.85641 43.5419 5.92241 43.5712 6.01291C43.6006 6.10341 43.576 6.20273 43.5079 6.26911L41.9354 7.8007L42.3065 9.96443C42.3226 10.0582 42.284 10.153 42.207 10.209C42.13 10.2649 42.028 10.2723 41.9437 10.228L40.0001 9.20582L38.0565 10.228C37.9722 10.2723 37.8701 10.2649 37.7932 10.209C37.7162 10.153 37.6776 10.0582 37.6937 9.96443L38.0648 7.8007L36.4923 6.26911C36.4242 6.20273 36.3996 6.10341 36.4289 6.01291C36.4583 5.92241 36.5365 5.85641 36.6306 5.84265L38.804 5.52497L39.7759 3.55603C39.818 3.47071 39.9049 3.41669 40.0001 3.41669Z" fill="#23263B"/>
</svg>
