<svg width="14" height="9" viewBox="0 0 14 9" fill="none" xmlns="http://www.w3.org/2000/svg">
<path d="M3.50923 1.14436V7.68982H1.9304V2.62093H1.89205L0.428267 3.51581V2.14792L2.04226 1.14436H3.50923ZM7.99885 0.837546L5.88947 8.67419H4.55673L6.6661 0.837546H7.99885ZM11.0742 7.77931C10.5969 7.77931 10.1729 7.69302 9.8022 7.52043C9.43146 7.34784 9.13849 7.11027 8.9233 6.80772C8.71023 6.50516 8.59943 6.15786 8.59091 5.76581H10.125C10.1378 6.00658 10.2358 6.20047 10.419 6.34749C10.6023 6.49238 10.8207 6.56482 11.0742 6.56482C11.2724 6.56482 11.4482 6.52114 11.6016 6.43378C11.755 6.34642 11.8754 6.22391 11.9627 6.06624C12.0501 5.90644 12.0927 5.7232 12.0906 5.51652C12.0927 5.30559 12.049 5.12128 11.9595 4.96361C11.8722 4.80594 11.7507 4.68343 11.5952 4.59607C11.4418 4.50658 11.2649 4.46184 11.0646 4.46184C10.875 4.45971 10.695 4.50125 10.5245 4.58648C10.3562 4.67171 10.2283 4.78783 10.141 4.93485L8.74432 4.67277L9.02876 1.14436H13.2283V2.41958H10.3295L10.1793 3.96326H10.2177C10.3263 3.78215 10.5011 3.633 10.7418 3.51581C10.9847 3.3965 11.2607 3.33684 11.5696 3.33684C11.9616 3.33684 12.3111 3.42846 12.6179 3.61169C12.9268 3.7928 13.1697 4.04422 13.3466 4.36596C13.5256 4.68769 13.6151 5.0563 13.6151 5.47178C13.6151 5.92135 13.5085 6.31979 13.2955 6.66709C13.0845 7.01439 12.7884 7.28712 12.407 7.48527C12.0277 7.6813 11.5835 7.77931 11.0742 7.77931Z" fill="#23263B"/>
</svg>
