<svg width="186" height="35" viewBox="0 0 186 35" fill="none" xmlns="http://www.w3.org/2000/svg">
<path d="M35.6261 16.36C34.9541 16.36 34.2461 16.288 33.5021 16.144C32.7701 16 32.1221 15.76 31.5581 15.424L31.6661 12.688H33.5741L33.9341 14.956C34.4741 15.136 35.0441 15.226 35.6441 15.226C36.2081 15.226 36.6221 15.076 36.8861 14.776C37.1501 14.464 37.2821 14.104 37.2821 13.696C37.2821 13.264 37.1801 12.928 36.9761 12.688C36.7841 12.448 36.4601 12.22 36.0041 12.004L35.2121 11.626C34.0961 11.098 33.2441 10.522 32.6561 9.89799C32.0681 9.27399 31.7741 8.45199 31.7741 7.43199C31.7741 6.32799 32.1821 5.46399 32.9981 4.83999C33.8261 4.21599 34.9661 3.90399 36.4181 3.90399C37.0781 3.90399 37.7261 3.98199 38.3621 4.13799C38.9981 4.29399 39.5441 4.51599 40.0001 4.80399L39.8381 7.39599H37.9661L37.6421 5.25399C37.2821 5.10999 36.9101 5.03799 36.5261 5.03799C36.0821 5.03799 35.6981 5.18199 35.3741 5.46999C35.0621 5.74599 34.9061 6.09399 34.9061 6.51399C34.9061 6.95799 35.0321 7.30599 35.2841 7.55799C35.5361 7.80999 35.9021 8.05599 36.3821 8.29599L37.2821 8.72799C38.0381 9.08799 38.6501 9.45399 39.1181 9.82599C39.5981 10.186 39.9461 10.594 40.1621 11.05C40.3901 11.494 40.5041 12.028 40.5041 12.652C40.5041 13.36 40.3241 13.996 39.9641 14.56C39.6161 15.112 39.0821 15.55 38.3621 15.874C37.6421 16.198 36.7301 16.36 35.6261 16.36Z" fill="#23263B"/>
<path d="M41.2595 19.996V19.06L42.0695 18.88C42.0815 18.28 42.0875 17.728 42.0875 17.224C42.0995 16.732 42.1055 16.276 42.1055 15.856V11.104C42.1055 10.768 42.0995 10.498 42.0875 10.294C42.0875 10.09 42.0815 9.89799 42.0695 9.71799C42.0695 9.53799 42.0635 9.32799 42.0515 9.088L41.0795 8.92599V8.18799L45.0215 6.94599L45.3275 7.10799L45.3995 8.06199C46.1315 7.31799 47.0075 6.94599 48.0275 6.94599C48.6875 6.94599 49.2875 7.11999 49.8275 7.46799C50.3675 7.80399 50.7935 8.31399 51.1055 8.99799C51.4295 9.68199 51.5915 10.54 51.5915 11.572C51.5915 12.556 51.4055 13.402 51.0335 14.11C50.6615 14.806 50.1755 15.346 49.5755 15.73C48.9875 16.102 48.3575 16.288 47.6855 16.288C47.2055 16.288 46.7855 16.21 46.4255 16.054C46.0655 15.91 45.7475 15.7 45.4715 15.424V15.856C45.4715 16.264 45.4715 16.708 45.4715 17.188C45.4835 17.68 45.4955 18.214 45.5075 18.79L46.4615 19.06V19.996H41.2595ZM46.3715 8.72799C46.2155 8.72799 46.0655 8.752 45.9215 8.79999C45.7895 8.84799 45.6575 8.91399 45.5255 8.99799V14.308C45.7655 14.476 46.0475 14.56 46.3715 14.56C46.8515 14.56 47.2355 14.32 47.5235 13.84C47.8115 13.348 47.9555 12.592 47.9555 11.572C47.9555 10.54 47.8115 9.80799 47.5235 9.37599C47.2355 8.94399 46.8515 8.72799 46.3715 8.72799Z" fill="#23263B"/>
<path d="M57.1862 7.91799C56.9102 7.91799 56.6762 8.12199 56.4842 8.52999C56.2922 8.93799 56.1842 9.69999 56.1602 10.816H57.0062C57.4382 10.816 57.7262 10.732 57.8702 10.564C58.0262 10.384 58.1042 10.066 58.1042 9.60999C58.1042 8.98599 58.0082 8.54799 57.8162 8.29599C57.6362 8.04399 57.4262 7.91799 57.1862 7.91799ZM57.2402 16.288C56.3402 16.288 55.5362 16.102 54.8282 15.73C54.1322 15.358 53.5802 14.824 53.1722 14.128C52.7642 13.42 52.5602 12.574 52.5602 11.59C52.5602 10.81 52.6982 10.132 52.9742 9.55599C53.2502 8.97999 53.6222 8.49999 54.0902 8.11599C54.5582 7.71999 55.0802 7.42599 55.6562 7.23399C56.2322 7.04199 56.8142 6.94599 57.4022 6.94599C58.2662 6.94599 58.9802 7.12599 59.5442 7.48599C60.1202 7.83399 60.5522 8.30799 60.8402 8.90799C61.1282 9.49599 61.2722 10.156 61.2722 10.888C61.2722 11.08 61.2662 11.248 61.2542 11.392C61.2422 11.524 61.2182 11.674 61.1822 11.842H56.1782C56.2742 12.718 56.5322 13.354 56.9522 13.75C57.3842 14.146 57.8642 14.344 58.3922 14.344C58.8482 14.344 59.2382 14.266 59.5622 14.11C59.8982 13.942 60.1922 13.738 60.4442 13.498L61.1462 14.182C60.7622 14.914 60.2342 15.448 59.5622 15.784C58.9022 16.12 58.1282 16.288 57.2402 16.288Z" fill="#23263B"/>
<path d="M62.0528 16V15.082L62.8808 14.884C62.8928 14.452 62.8988 13.996 62.8988 13.516C62.8988 13.024 62.8988 12.592 62.8988 12.22V11.104C62.8988 10.768 62.8928 10.498 62.8808 10.294C62.8808 10.09 62.8748 9.89799 62.8628 9.71799C62.8628 9.53799 62.8568 9.32799 62.8448 9.088L61.8728 8.92599V8.18799L65.8508 6.94599L66.1748 7.14399L66.2648 8.38599C66.7568 7.80999 67.2068 7.42599 67.6148 7.23399C68.0348 7.04199 68.4968 6.94599 69.0008 6.94599C69.7808 6.94599 70.4288 7.20399 70.9448 7.72C71.4608 8.224 71.7188 8.96799 71.7188 9.95199V12.22C71.7188 12.604 71.7188 13.042 71.7188 13.534C71.7188 14.026 71.7248 14.488 71.7368 14.92L72.4928 15.082V16H67.5068V15.082L68.2808 14.902C68.2928 14.47 68.2988 14.008 68.2988 13.516C68.2988 13.024 68.2988 12.592 68.2988 12.22V10.186C68.2988 9.70599 68.2328 9.36999 68.1008 9.17799C67.9808 8.97399 67.7768 8.87199 67.4888 8.87199C67.1528 8.87199 66.7628 9.02799 66.3188 9.33999V12.22C66.3188 12.592 66.3188 13.03 66.3188 13.534C66.3188 14.026 66.3248 14.494 66.3368 14.938L67.0208 15.082V16H62.0528Z" fill="#23263B"/>
<path d="M77.8589 16.288C77.0429 16.288 76.2809 16.12 75.5729 15.784C74.8649 15.436 74.2889 14.92 73.8449 14.236C73.4129 13.552 73.1969 12.688 73.1969 11.644C73.1969 10.648 73.4249 9.80199 73.8809 9.10599C74.3369 8.39799 74.9549 7.86399 75.7349 7.50399C76.5149 7.13199 77.3849 6.94599 78.3449 6.94599C79.0169 6.94599 79.6049 7.07199 80.1089 7.32399C80.6129 7.57599 81.0089 7.91199 81.2969 8.33199C81.5969 8.73999 81.7589 9.18999 81.7829 9.68199C81.5549 10.378 81.0989 10.726 80.4149 10.726C80.0429 10.726 79.7009 10.582 79.3889 10.294C79.0769 10.006 78.9029 9.46599 78.8669 8.67399L78.8309 7.91799H78.7589C78.4829 7.91799 78.1889 8.02599 77.8769 8.24199C77.5769 8.44599 77.3189 8.79399 77.1029 9.28599C76.8989 9.76599 76.7969 10.42 76.7969 11.248C76.7969 12.244 77.0069 13.012 77.4269 13.552C77.8589 14.08 78.4349 14.344 79.1549 14.344C79.5509 14.344 79.8929 14.266 80.1809 14.11C80.4689 13.942 80.7389 13.738 80.9909 13.498L81.6929 14.182C81.3089 14.914 80.7869 15.448 80.1269 15.784C79.4669 16.12 78.7109 16.288 77.8589 16.288Z" fill="#23263B"/>
<path d="M87.069 7.91799C86.793 7.91799 86.559 8.12199 86.367 8.52999C86.175 8.93799 86.067 9.69999 86.043 10.816H86.889C87.321 10.816 87.609 10.732 87.753 10.564C87.909 10.384 87.987 10.066 87.987 9.60999C87.987 8.98599 87.891 8.54799 87.699 8.29599C87.519 8.04399 87.309 7.91799 87.069 7.91799ZM87.123 16.288C86.223 16.288 85.419 16.102 84.711 15.73C84.015 15.358 83.463 14.824 83.055 14.128C82.647 13.42 82.443 12.574 82.443 11.59C82.443 10.81 82.581 10.132 82.857 9.55599C83.133 8.97999 83.505 8.49999 83.973 8.11599C84.441 7.71999 84.963 7.42599 85.539 7.23399C86.115 7.04199 86.697 6.94599 87.285 6.94599C88.149 6.94599 88.863 7.12599 89.427 7.48599C90.003 7.83399 90.435 8.30799 90.723 8.90799C91.011 9.49599 91.155 10.156 91.155 10.888C91.155 11.08 91.149 11.248 91.137 11.392C91.125 11.524 91.101 11.674 91.065 11.842H86.061C86.157 12.718 86.415 13.354 86.835 13.75C87.267 14.146 87.747 14.344 88.275 14.344C88.731 14.344 89.121 14.266 89.445 14.11C89.781 13.942 90.075 13.738 90.327 13.498L91.029 14.182C90.645 14.914 90.117 15.448 89.445 15.784C88.785 16.12 88.011 16.288 87.123 16.288Z" fill="#23263B"/>
<path d="M91.8996 16V15.082L92.7636 14.884C92.7756 14.452 92.7816 13.996 92.7816 13.516C92.7816 13.024 92.7816 12.592 92.7816 12.22V11.086C92.7816 10.75 92.7756 10.48 92.7636 10.276C92.7636 10.072 92.7576 9.88599 92.7456 9.71799C92.7456 9.53799 92.7396 9.32799 92.7276 9.088L91.7556 8.92599V8.18799L95.7336 6.94599L96.0576 7.14399L96.2016 9.23199C96.4416 8.45199 96.7836 7.87599 97.2276 7.50399C97.6836 7.13199 98.1276 6.94599 98.5596 6.94599C99.0036 6.94599 99.3756 7.07799 99.6756 7.34199C99.9876 7.59399 100.174 7.99599 100.234 8.54799C100.21 9.02799 100.066 9.40599 99.8016 9.68199C99.5376 9.94599 99.2256 10.078 98.8656 10.078C98.3136 10.078 97.8096 9.74799 97.3536 9.088L97.2636 8.96199C97.0476 9.20199 96.8316 9.51399 96.6156 9.89799C96.4116 10.282 96.2736 10.678 96.2016 11.086V12.22C96.2016 12.568 96.2016 12.976 96.2016 13.444C96.2016 13.912 96.2076 14.356 96.2196 14.776L97.6236 15.082V16H91.8996Z" fill="#23263B"/>
<path d="M104.051 7.77399C104.111 7.86999 104.189 7.97799 104.285 8.09799C104.381 8.20599 104.507 8.36199 104.663 8.56599C105.023 8.07399 105.263 7.60599 105.383 7.16199C105.503 6.71799 105.563 6.33999 105.563 6.02799C105.563 5.66799 105.473 5.37999 105.293 5.16399C105.125 4.94799 104.867 4.83999 104.519 4.83999C104.195 4.83999 103.937 4.95999 103.745 5.19999C103.565 5.42799 103.475 5.72199 103.475 6.08199C103.475 6.30999 103.517 6.56199 103.601 6.83799C103.685 7.11399 103.835 7.42599 104.051 7.77399ZM111.413 16C110.933 16.108 110.561 16.18 110.297 16.216C110.033 16.264 109.763 16.288 109.487 16.288C108.935 16.288 108.431 16.216 107.975 16.072C107.531 15.928 107.081 15.67 106.625 15.298C106.577 15.262 106.529 15.226 106.481 15.19C106.445 15.142 106.403 15.1 106.355 15.064C106.043 15.388 105.617 15.676 105.077 15.928C104.549 16.168 103.853 16.288 102.989 16.288C102.161 16.288 101.477 16.144 100.937 15.856C100.409 15.568 100.013 15.19 99.7491 14.722C99.4851 14.242 99.3531 13.726 99.3531 13.174C99.3531 12.526 99.5571 11.932 99.9651 11.392C100.373 10.852 101.081 10.372 102.089 9.95199C102.041 9.90399 102.011 9.86799 101.999 9.84399C101.603 9.31599 101.333 8.824 101.189 8.36799C101.045 7.91199 100.973 7.46799 100.973 7.03599C100.973 6.11199 101.297 5.38599 101.945 4.85799C102.593 4.31799 103.463 4.04799 104.555 4.04799C105.599 4.04799 106.403 4.26399 106.967 4.69599C107.543 5.11599 107.831 5.67999 107.831 6.38799C107.831 6.98799 107.615 7.50399 107.183 7.93599C106.763 8.36799 106.091 8.76399 105.167 9.12399C105.335 9.30399 105.521 9.50799 105.725 9.73599C105.941 9.96399 106.187 10.234 106.463 10.546C106.763 10.87 107.033 11.164 107.273 11.428C107.525 11.68 107.753 11.92 107.957 12.148C108.197 11.692 108.383 11.26 108.515 10.852C108.659 10.432 108.785 9.95799 108.893 9.43L107.525 9.19599V8.34999H111.629V9.19599L110.423 9.39399C110.183 10.078 109.925 10.678 109.649 11.194C109.373 11.71 109.025 12.25 108.605 12.814C108.809 13.03 109.007 13.246 109.199 13.462C109.391 13.666 109.601 13.888 109.829 14.128L111.593 14.542L111.413 16ZM104.213 12.616C103.853 12.16 103.541 11.776 103.277 11.464C103.025 11.14 102.809 10.87 102.629 10.654C102.317 11.134 102.161 11.68 102.161 12.292C102.161 12.796 102.269 13.222 102.485 13.57C102.713 13.918 103.007 14.182 103.367 14.362C103.727 14.542 104.111 14.632 104.519 14.632C104.987 14.632 105.377 14.554 105.689 14.398C105.413 14.098 105.149 13.792 104.897 13.48C104.657 13.168 104.429 12.88 104.213 12.616Z" fill="#23263B"/>
<path d="M124.688 5.32599V4.26399H128.378V5.32599L127.01 5.55999L123.77 16H121.61L119.306 8.27799L116.984 16H114.824L111.62 5.41599L110.666 5.32599V4.26399H116.534V5.32599L115.328 5.45199L117.038 12.274L118.964 5.46999L117.848 5.32599V4.26399H123.446V5.32599L121.97 5.50599L123.824 12.418L125.804 5.50599L124.688 5.32599Z" fill="#23263B"/>
<path d="M128.166 16V15.082L128.976 14.902C128.988 14.458 128.994 13.996 128.994 13.516C128.994 13.024 128.994 12.592 128.994 12.22V11.356C128.994 10.864 128.988 10.456 128.976 10.132C128.976 9.79599 128.964 9.448 128.94 9.088L127.968 8.92599V8.18799L132.144 6.94599L132.468 7.14399L132.414 9.82599V12.22C132.414 12.592 132.414 13.03 132.414 13.534C132.414 14.026 132.42 14.488 132.432 14.92L133.188 15.082V16H128.166ZM130.668 5.88399C130.212 5.88399 129.822 5.73999 129.498 5.45199C129.174 5.15199 129.012 4.77999 129.012 4.33599C129.012 3.87999 129.174 3.50799 129.498 3.21999C129.822 2.93199 130.212 2.78799 130.668 2.78799C131.124 2.78799 131.514 2.93199 131.838 3.21999C132.162 3.50799 132.324 3.87999 132.324 4.33599C132.324 4.77999 132.162 5.15199 131.838 5.45199C131.514 5.73999 131.124 5.88399 130.668 5.88399Z" fill="#23263B"/>
<path d="M133.984 16V15.082L134.794 14.902C134.806 14.446 134.812 13.996 134.812 13.552C134.824 13.108 134.83 12.664 134.83 12.22V4.82199L133.858 4.64199V3.83199L138.016 3.02199L138.322 3.21999L138.25 5.72199V12.22C138.25 12.664 138.25 13.114 138.25 13.57C138.262 14.014 138.274 14.464 138.286 14.92L139.096 15.082V16H133.984Z" fill="#23263B"/>
<path d="M139.996 16V15.082L140.806 14.902C140.818 14.446 140.824 13.996 140.824 13.552C140.836 13.108 140.842 12.664 140.842 12.22V4.82199L139.87 4.64199V3.83199L144.028 3.02199L144.334 3.21999L144.262 5.72199V12.22C144.262 12.664 144.262 13.114 144.262 13.57C144.274 14.014 144.286 14.464 144.298 14.92L145.108 15.082V16H139.996Z" fill="#23263B"/>
<path d="M146.026 16V15.082L146.836 14.902C146.848 14.458 146.854 13.996 146.854 13.516C146.854 13.024 146.854 12.592 146.854 12.22V11.356C146.854 10.864 146.848 10.456 146.836 10.132C146.836 9.79599 146.824 9.448 146.8 9.088L145.828 8.92599V8.18799L150.004 6.94599L150.328 7.14399L150.274 9.82599V12.22C150.274 12.592 150.274 13.03 150.274 13.534C150.274 14.026 150.28 14.488 150.292 14.92L151.048 15.082V16H146.026ZM148.528 5.88399C148.072 5.88399 147.682 5.73999 147.358 5.45199C147.034 5.15199 146.872 4.77999 146.872 4.33599C146.872 3.87999 147.034 3.50799 147.358 3.21999C147.682 2.93199 148.072 2.78799 148.528 2.78799C148.984 2.78799 149.374 2.93199 149.698 3.21999C150.022 3.50799 150.184 3.87999 150.184 4.33599C150.184 4.77999 150.022 5.15199 149.698 5.45199C149.374 5.73999 148.984 5.88399 148.528 5.88399Z" fill="#23263B"/>
<path d="M158.81 16.288C158.246 16.288 157.79 16.18 157.442 15.964C157.106 15.736 156.86 15.418 156.704 15.01C156.356 15.394 156.002 15.706 155.642 15.946C155.294 16.174 154.796 16.288 154.148 16.288C153.44 16.288 152.87 16.084 152.438 15.676C152.018 15.268 151.808 14.698 151.808 13.966C151.808 13.498 151.91 13.084 152.114 12.724C152.33 12.352 152.702 12.016 153.23 11.716C153.77 11.404 154.526 11.122 155.498 10.87C155.642 10.834 155.81 10.792 156.002 10.744C156.194 10.684 156.392 10.63 156.596 10.582V9.93399C156.596 9.16599 156.506 8.63799 156.326 8.34999C156.158 8.06199 155.792 7.91799 155.228 7.91799C155.18 7.91799 155.132 7.91799 155.084 7.91799C155.048 7.91799 155.006 7.91799 154.958 7.91799V8.52999C154.958 9.26199 154.808 9.78399 154.508 10.096C154.208 10.396 153.866 10.546 153.482 10.546C152.75 10.546 152.294 10.222 152.114 9.57399C152.114 8.79399 152.48 8.16399 153.212 7.68399C153.956 7.19199 155.054 6.94599 156.506 6.94599C157.754 6.94599 158.63 7.22199 159.134 7.77399C159.65 8.31399 159.908 9.20199 159.908 10.438V14.56C159.908 14.764 160.01 14.866 160.214 14.866C160.286 14.866 160.358 14.842 160.43 14.794C160.502 14.734 160.592 14.626 160.7 14.47L161.222 14.758C161.006 15.31 160.706 15.706 160.322 15.946C159.95 16.174 159.446 16.288 158.81 16.288ZM154.904 13.408C154.904 13.852 154.994 14.182 155.174 14.398C155.354 14.614 155.576 14.722 155.84 14.722C155.924 14.722 156.014 14.704 156.11 14.668C156.218 14.62 156.38 14.524 156.596 14.38V11.428C156.416 11.476 156.242 11.542 156.074 11.626C155.822 11.746 155.564 11.95 155.3 12.238C155.036 12.526 154.904 12.916 154.904 13.408Z" fill="#23263B"/>
<path d="M161.492 16V15.082L162.32 14.884C162.332 14.452 162.338 13.996 162.338 13.516C162.338 13.024 162.338 12.592 162.338 12.22V11.104C162.338 10.768 162.338 10.498 162.338 10.294C162.338 10.09 162.332 9.89799 162.32 9.71799C162.32 9.53799 162.308 9.32799 162.284 9.088L161.312 8.92599V8.18799L165.29 6.94599L165.614 7.14399L165.704 8.38599C166.124 7.88199 166.544 7.51599 166.964 7.28799C167.384 7.05999 167.858 6.94599 168.386 6.94599C169.658 6.94599 170.486 7.46799 170.87 8.51199C171.374 7.88799 171.836 7.47399 172.256 7.26999C172.676 7.05399 173.132 6.94599 173.624 6.94599C174.608 6.94599 175.31 7.21599 175.73 7.75599C176.162 8.29599 176.378 9.09399 176.378 10.15V12.22C176.378 12.604 176.378 13.042 176.378 13.534C176.378 14.026 176.384 14.488 176.396 14.92L177.152 15.082V16H172.328V15.082L173.012 14.902C173.024 14.47 173.03 14.008 173.03 13.516C173.03 13.024 173.03 12.592 173.03 12.22V10.402C173.03 9.78999 172.97 9.38199 172.85 9.17799C172.73 8.97399 172.514 8.87199 172.202 8.87199C171.818 8.87199 171.434 9.01599 171.05 9.30399C171.062 9.39999 171.068 9.50199 171.068 9.60999C171.08 9.71799 171.086 9.83199 171.086 9.95199V12.22C171.086 12.604 171.086 13.042 171.086 13.534C171.086 14.026 171.092 14.494 171.104 14.938L171.788 15.082V16H166.946V15.082L167.72 14.884C167.732 14.464 167.738 14.008 167.738 13.516C167.738 13.024 167.738 12.592 167.738 12.22V10.402C167.738 9.84999 167.678 9.45999 167.558 9.23199C167.45 8.99199 167.222 8.87199 166.874 8.87199C166.694 8.87199 166.508 8.91399 166.316 8.99799C166.124 9.08199 165.938 9.18999 165.758 9.32199V12.22C165.758 12.592 165.758 13.03 165.758 13.534C165.758 14.026 165.764 14.494 165.776 14.938L166.46 15.082V16H161.492Z" fill="#23263B"/>
<path d="M181.169 16.288C179.921 16.288 178.817 15.994 177.857 15.406L177.947 13.102H179.585L179.873 14.974C180.077 15.058 180.287 15.124 180.503 15.172C180.719 15.208 180.941 15.226 181.169 15.226C181.625 15.226 181.979 15.154 182.231 15.01C182.483 14.866 182.609 14.626 182.609 14.29C182.609 14.05 182.513 13.834 182.321 13.642C182.141 13.45 181.751 13.276 181.151 13.12L180.125 12.85C179.417 12.658 178.877 12.322 178.505 11.842C178.133 11.35 177.947 10.756 177.947 10.06C177.947 9.15999 178.289 8.41599 178.973 7.82799C179.669 7.23999 180.665 6.94599 181.961 6.94599C182.513 6.94599 183.023 7.00599 183.491 7.12599C183.971 7.24599 184.457 7.42599 184.949 7.66599L184.805 9.69999H183.149L182.753 8.09799C182.633 8.07399 182.501 8.05599 182.357 8.04399C182.225 8.01999 182.063 8.00799 181.871 8.00799C181.535 8.00799 181.247 8.08599 181.007 8.24199C180.779 8.38599 180.665 8.61399 180.665 8.92599C180.665 9.11799 180.749 9.30399 180.917 9.48399C181.085 9.66399 181.481 9.83799 182.105 10.006L183.113 10.276C183.953 10.504 184.553 10.858 184.913 11.338C185.285 11.818 185.471 12.412 185.471 13.12C185.471 14.176 185.081 14.968 184.301 15.496C183.533 16.024 182.489 16.288 181.169 16.288Z" fill="#23263B"/>
<path d="M93.5054 34H95.0174V28.708H99.5174V27.448H95.0174V23.452H100.327V22.192H93.5054V34Z" fill="#23263B"/>
<path d="M107.62 29.194L108.196 27.394C108.61 26.08 108.988 24.784 109.366 23.416H109.438C109.816 24.784 110.194 26.08 110.608 27.394L111.166 29.194H107.62ZM112.678 34H114.262L110.266 22.192H108.574L104.578 34H106.108L107.242 30.4H111.544L112.678 34Z" fill="#23263B"/>
<path d="M119.484 32.47C120.51 33.532 121.95 34.216 123.606 34.216C126.09 34.216 127.638 32.722 127.638 30.85C127.638 29.104 126.576 28.294 125.208 27.7L123.516 26.98C122.598 26.584 121.554 26.152 121.554 25.018C121.554 23.956 122.436 23.29 123.768 23.29C124.848 23.29 125.73 23.722 126.45 24.406L127.242 23.434C126.414 22.57 125.172 21.976 123.768 21.976C121.626 21.976 120.042 23.308 120.042 25.108C120.042 26.836 121.338 27.682 122.436 28.15L124.128 28.888C125.244 29.392 126.108 29.77 126.108 30.976C126.108 32.128 125.19 32.902 123.642 32.902C122.4 32.902 121.23 32.308 120.384 31.426L119.484 32.47Z" fill="#23263B"/>
<path d="M134.357 34H135.869V28.438H141.359V34H142.853V22.192H141.359V27.142H135.869V22.192H134.357V34Z" fill="#23263B"/>
<path d="M150.511 34H152.023V22.192H150.511V34Z" fill="#23263B"/>
<path d="M164.026 34.216C166.978 34.216 169.066 31.84 169.066 28.042C169.066 24.28 166.978 21.976 164.026 21.976C161.056 21.976 158.968 24.262 158.968 28.042C158.968 31.84 161.056 34.216 164.026 34.216ZM164.026 32.902C161.902 32.902 160.516 30.994 160.516 28.042C160.516 25.108 161.902 23.29 164.026 23.29C166.132 23.29 167.518 25.108 167.518 28.042C167.518 30.994 166.132 32.902 164.026 32.902Z" fill="#23263B"/>
<path d="M176.017 34H177.439V27.826C177.439 26.584 177.331 25.324 177.259 24.136H177.331L178.609 26.566L182.875 34H184.423V22.192H183.001V28.294C183.001 29.536 183.127 30.868 183.199 32.056H183.127L181.849 29.608L177.565 22.192H176.017V34Z" fill="#23263B"/>
<path fill-rule="evenodd" clip-rule="evenodd" d="M1.76752 6.02098C0.257124 6.70207 -0.415156 8.47862 0.265935 9.98901L2.31874 14.5413L2.89395 13.8487C3.26729 14.1474 3.66729 14.3927 4.09395 14.5847C4.53129 14.766 4.94195 14.8567 5.32595 14.8567C5.74195 14.8567 6.04062 14.7927 6.22195 14.6647C6.41395 14.5367 6.50995 14.3554 6.50995 14.1207C6.50995 13.9927 6.47795 13.886 6.41395 13.8007C6.34995 13.7154 6.25395 13.6354 6.12595 13.5607C6.00862 13.486 5.86462 13.4167 5.69395 13.3527C5.52329 13.278 5.32595 13.198 5.10195 13.1127L3.80595 12.5687C3.52862 12.462 3.26195 12.3234 3.00595 12.1527C2.74995 11.9714 2.52595 11.7634 2.33395 11.5287C2.14195 11.2834 1.98729 11.006 1.86995 10.6967C1.76329 10.3874 1.70995 10.046 1.70995 9.67271C1.70995 9.22471 1.80595 8.80871 1.99795 8.42471C2.18995 8.03004 2.45662 7.68871 2.79795 7.40071C3.13929 7.10204 3.54462 6.86738 4.01395 6.69671C4.49395 6.52604 5.01662 6.44071 5.58195 6.44071C6.17929 6.44071 6.78195 6.55271 7.38995 6.77671C8.00862 7.00071 8.55795 7.35271 9.03795 7.83271L7.66195 9.56071C7.30995 9.31538 6.96862 9.12871 6.63795 9.00071C6.31795 8.87271 5.96595 8.80871 5.58195 8.80871C5.24062 8.80871 4.97395 8.86738 4.78195 8.98471C4.58995 9.10204 4.49395 9.27804 4.49395 9.51271C4.49395 9.75804 4.62729 9.95004 4.89395 10.0887C5.17129 10.2167 5.54995 10.3714 6.02995 10.5527L7.29395 11.0487C7.94462 11.3047 8.44595 11.662 8.79795 12.1207C9.14995 12.5794 9.32595 13.1714 9.32595 13.8967C9.32595 14.334 9.23529 14.7554 9.05395 15.1607C8.87262 15.566 8.60595 15.9234 8.25395 16.2327C7.91262 16.5314 7.49129 16.7714 6.98995 16.9527C6.48862 17.134 5.91262 17.2247 5.26195 17.2247C4.65788 17.2247 4.03601 17.1268 3.39635 16.931L4.78776 20.0166C5.46885 21.527 7.2454 22.1993 8.75579 21.5182L18.7029 17.0327H17.6532L16.8532 12.9047C16.7679 12.4994 16.6932 12.0887 16.6292 11.6727C16.5759 11.2567 16.5225 10.8567 16.4692 10.4727H16.4052C16.3519 10.8567 16.2932 11.2567 16.2292 11.6727C16.1759 12.0887 16.1065 12.4994 16.0212 12.9047L15.2532 17.0327H11.8292L10.0052 6.63271H12.8212L13.3972 11.1767C13.4505 11.7207 13.5092 12.2647 13.5732 12.8087C13.6372 13.3527 13.6959 13.8967 13.7492 14.4407H13.8132L14.1012 12.8087L14.3892 11.1767L15.3812 6.63271H17.6852L18.6772 11.1767C18.7732 11.6994 18.8692 12.238 18.9652 12.7927C19.0612 13.3367 19.1572 13.886 19.2532 14.4407H19.3172C19.3705 13.886 19.4292 13.3367 19.4932 12.7927C19.5572 12.2487 19.6159 11.71 19.6692 11.1767L20.2452 6.63271H20.6919L18.498 1.76752C17.8169 0.257124 16.0403 -0.415156 14.5299 0.265935L1.76752 6.02098ZM22.2829 10.1611L21.3387 15.8441L21.5182 15.7632C23.0286 15.0821 23.7009 13.3055 23.0198 11.7951L22.2829 10.1611Z" fill="#5468FF"/>
</svg>
