<svg width="24" height="25" viewBox="0 0 24 25" fill="none" xmlns="http://www.w3.org/2000/svg">
<path d="M12 4.108C13.93 4.108 17 5.508 17 9.258C17 11.418 15.28 13.928 12 16.578C8.72 13.928 7 11.408 7 9.258C7 5.508 10.07 4.108 12 4.108ZM12 2.108C8.73 2.108 5 4.568 5 9.258C5 12.378 7.33 15.668 12 19.108C16.67 15.668 19 12.378 19 9.258C19 4.568 15.27 2.108 12 2.108Z" fill="#23263B"/>
<path d="M12 7.108C10.9 7.108 10 8.008 10 9.108C10 10.208 10.9 11.108 12 11.108C12.5304 11.108 13.0391 10.8973 13.4142 10.5222C13.7893 10.1471 14 9.63843 14 9.108C14 8.57757 13.7893 8.06886 13.4142 7.69379C13.0391 7.31872 12.5304 7.108 12 7.108ZM5 20.108H19V22.108H5V20.108Z" fill="#23263B"/>
</svg>
