<svg width="20" height="19" viewBox="0 0 20 19" fill="none" xmlns="http://www.w3.org/2000/svg">
<path d="M14.5 0.108002C12.76 0.108002 11.09 0.918002 10 2.198C8.91 0.918002 7.24 0.108002 5.5 0.108002C2.42 0.108002 0 2.528 0 5.608C0 9.388 3.4 12.468 8.55 17.148L10 18.458L11.45 17.138C16.6 12.468 20 9.388 20 5.608C20 2.528 17.58 0.108002 14.5 0.108002ZM10.1 15.658L10 15.758L9.9 15.658C5.14 11.348 2 8.498 2 5.608C2 3.608 3.5 2.108 5.5 2.108C7.04 2.108 8.54 3.098 9.07 4.468H10.94C11.46 3.098 12.96 2.108 14.5 2.108C16.5 2.108 18 3.608 18 5.608C18 8.498 14.86 11.348 10.1 15.658Z" fill="#23263B"/>
</svg>
