<svg width="20" height="21" viewBox="0 0 20 21" fill="none" xmlns="http://www.w3.org/2000/svg">
<path d="M10 2.608C11.375 2.608 12.5 3.733 12.5 5.108C12.5 6.483 11.375 7.608 10 7.608C8.625 7.608 7.5 6.483 7.5 5.108C7.5 3.733 8.625 2.608 10 2.608ZM10 15.108C13.375 15.108 17.25 16.7205 17.5 17.608H2.5C2.7875 16.708 6.6375 15.108 10 15.108ZM10 0.108002C7.2375 0.108002 5 2.3455 5 5.108C5 7.8705 7.2375 10.108 10 10.108C12.7625 10.108 15 7.8705 15 5.108C15 2.3455 12.7625 0.108002 10 0.108002ZM10 12.608C6.6625 12.608 0 14.283 0 17.608V20.108H20V17.608C20 14.283 13.3375 12.608 10 12.608Z" fill="#23263B"/>
</svg>
