<svg width="24" height="23" viewBox="0 0 24 23" fill="none" xmlns="http://www.w3.org/2000/svg">
<g filter="url(#filter0_d_2206_16116)">
<path d="M18.2222 11.3353V14.7898H16.4444V11.3353H18.2222ZM7.55556 11.3353V14.7898H6.66667C6.17778 14.7898 5.77778 14.4012 5.77778 13.9262V11.3353H7.55556ZM12 0.108002C7.58222 0.108002 4 3.58846 4 7.88073V13.9262C4 15.3598 5.19111 16.5171 6.66667 16.5171H9.33333V9.608H5.77778V7.88073C5.77778 4.53846 8.56 1.83527 12 1.83527C15.44 1.83527 18.2222 4.53846 18.2222 7.88073V9.608H14.6667V16.5171H18.2222V17.3807H12V19.108H17.3333C18.8089 19.108 20 17.9507 20 16.5171V7.88073C20 3.58846 16.4178 0.108002 12 0.108002Z" fill="#23263B"/>
<path d="M18.7222 11.3353V10.8353H18.2222H16.4444H15.9444V11.3353V14.7898V15.2898H16.4444H18.2222H18.7222V14.7898V11.3353ZM8.05556 11.3353V10.8353H7.55556H5.77778H5.27778V11.3353V13.9262C5.27778 14.6908 5.91532 15.2898 6.66667 15.2898H7.55556H8.05556V14.7898V11.3353ZM5.27778 9.608V10.108H5.77778H8.83333V16.0171H6.66667C5.45357 16.0171 4.5 15.0702 4.5 13.9262V7.88073C4.5 3.87808 7.84468 0.608002 12 0.608002C16.1553 0.608002 19.5 3.87808 19.5 7.88073V16.5171C19.5 17.6611 18.5464 18.608 17.3333 18.608H12.5V17.8807H18.2222H18.7222V17.3807V16.5171V16.0171H18.2222H15.1667V10.108H18.2222H18.7222V9.608V7.88073C18.7222 4.24883 15.7025 1.33527 12 1.33527C8.29754 1.33527 5.27778 4.24883 5.27778 7.88073V9.608Z" stroke="black"/>
</g>
<defs>
<filter id="filter0_d_2206_16116" x="0" y="0.108002" width="24" height="27" filterUnits="userSpaceOnUse" color-interpolation-filters="sRGB">
<feFlood flood-opacity="0" result="BackgroundImageFix"/>
<feColorMatrix in="SourceAlpha" type="matrix" values="0 0 0 0 0 0 0 0 0 0 0 0 0 0 0 0 0 0 127 0" result="hardAlpha"/>
<feOffset dy="4"/>
<feGaussianBlur stdDeviation="2"/>
<feComposite in2="hardAlpha" operator="out"/>
<feColorMatrix type="matrix" values="0 0 0 0 0 0 0 0 0 0 0 0 0 0 0 0 0 0 0.25 0"/>
<feBlend mode="normal" in2="BackgroundImageFix" result="effect1_dropShadow_2206_16116"/>
<feBlend mode="normal" in="SourceGraphic" in2="effect1_dropShadow_2206_16116" result="shape"/>
</filter>
</defs>
</svg>
